<svg id="Layer_1" data-name="Layer 1" xmlns="http://www.w3.org/2000/svg" width="156.3mm" height="29.7mm" viewBox="0 0 443 84.3">
  <defs>
    <style>
      .cls-1 {
        fill: #fff;
      }

      .cls-2 {
        fill: #231f20;
      }
    </style>
  </defs>
  <g>
    <path d="M493.3,52.4h-6.6v-17h6.6c4.7,0,6.2,3.7,6.2,8.4s-1.5,8.6-6.2,8.6m20.2,18c-2.3,0-4.2-.4-6.6-5l-4.2-8.2a8.5,8.5,0,0,0-6.1-4.4c5.4-.1,9.4-3.3,9.4-9a9.5,9.5,0,0,0-9.8-9.4H476.3v1h4.4v35h-4.4v.9h14.8v-.9h-4.4V53.3h2.9c4.2,0,5.1,2.1,6.3,4.5,1.9,4,2.6,5.2,4.3,8.6s3.6,5.1,8,5.1l6.3-.2v-.9Z" transform="translate(-71.5 -14.1)"/>
    <path d="M462,70.4h-7.9V53.3H457a7.7,7.7,0,0,1,7.7,7.8h.7V44.7h-.7a7.7,7.7,0,0,1-7.7,7.7h-2.9v-17h8.8a8.3,8.3,0,0,1,8.3,8.2h.7V34.4H443.7v1h4.4v35h-4.4v.9h29.7V59.8h-.7A10.6,10.6,0,0,1,462,70.4" transform="translate(-71.5 -14.1)"/>
    <polygon points="349.2 47.3 339.9 20.3 328.7 20.3 328.7 21.3 333.4 21.3 333.4 56.3 328.7 56.3 328.7 57.2 339.1 57.2 339.1 56.3 334.3 56.3 334.3 22.8 346.5 57.9 358.8 22.5 358.8 56.3 354.4 56.3 354.4 57.2 369.2 57.2 369.2 56.3 364.8 56.3 364.8 21.3 369.2 21.3 369.2 20.3 358.5 20.3 349.2 47.3"/>
    <path d="M339,70.4h-7.9v-35h4.3v-1H320.7v1H325v35h-4.3v.9h29.7V59.8h-.8A10.5,10.5,0,0,1,339,70.4" transform="translate(-71.5 -14.1)"/>
    <path d="M362.5,56.3l5.7-15.1,5.7,15.1Zm9.3-22.8h-1.7L356.2,70.4h-3.7v.9h9.2v-.9h-4.5l5-13.2h12.1l5,13.2H375v.9h14v-.9h-3.2Z" transform="translate(-71.5 -14.1)"/>
  </g>
  <g>
    <path d="M87,22.4a1.9,1.9,0,0,1-1-.3,2.1,2.1,0,0,1-.8-2.8,9.4,9.4,0,0,1,9.5-4.7A2.1,2.1,0,0,1,96.3,17,2,2,0,0,1,94,18.7a4.9,4.9,0,0,0-5.2,2.6A2.1,2.1,0,0,1,87,22.4" transform="translate(-71.5 -14.1)"/>
    <path d="M207.1,98.4a1.9,1.9,0,0,1-1.9-1.4,2,2,0,0,1,1.3-2.6,11.1,11.1,0,0,0,5.3-4.8,2,2,0,0,1,2.8-.8,2.2,2.2,0,0,1,.8,2.8,15,15,0,0,1-7.6,6.7h-.7" transform="translate(-71.5 -14.1)"/>
    <path d="M78.2,53.3H75.6V48.8h2.6A2.2,2.2,0,0,1,80.4,51a2.2,2.2,0,0,1-2.2,2.3m-.1-8H71.5V60.9h4.1V56.8h2.6a5.8,5.8,0,1,0-.1-11.5" transform="translate(-71.5 -14.1)"/>
    <path d="M108.1,55.4l1.6-3.4,1.6,3.4Zm.7-10.1-7.3,15.6h4.1l.9-2h6.4l1,2H118l-7.4-15.6Z" transform="translate(-71.5 -14.1)"/>
    <polygon points="55.5 36.4 52.5 31.2 47.8 31.2 53.5 41.1 53.5 46.9 57.6 46.9 57.6 41.1 63.3 31.2 58.5 31.2 55.5 36.4"/>
    <path d="M158.8,48.8h2.6a2.2,2.2,0,0,1,2.2,2.2,2.2,2.2,0,0,1-2.2,2.3h-2.6Zm0,8h2.6l2.4,4.1h4.7l-3.3-5.6a6.1,6.1,0,0,0,1.9-4.2,5.8,5.8,0,0,0-5.8-5.8h-6.6V60.9h4.1Z" transform="translate(-71.5 -14.1)"/>
    <path d="M179.3,49.4a3.8,3.8,0,0,1,0,7.5,3.8,3.8,0,0,1,0-7.5m0,11.5a7.7,7.7,0,0,0,7.8-7.7,7.8,7.8,0,1,0-15.6,0,7.7,7.7,0,0,0,7.8,7.7" transform="translate(-71.5 -14.1)"/>
    <polygon points="124.2 39.5 131.6 46.9 133.3 46.9 133.3 31.2 129.2 31.2 129.2 38.6 121.8 31.2 120.1 31.2 120.1 46.9 124.2 46.9 124.2 39.5"/>
    <path d="M213.7,45.3h-4.1V69.6c0,11.4-3.2,15.4-6.1,17.7-4.9,4-10.4,3-15.9-2.7-1.8-1.9-3.9-4.4-5.9-6.8s-4.4-5.2-6.3-7.1c-4.7-4.7-9.9-5.4-14.8-2.1a42,42,0,0,0-6.6,6.2l-3,3.1a2.9,2.9,0,0,1-3.1,1,3.6,3.6,0,0,1-1.8-3.5v-26h4.1V45.3h-3.9V39.4c0-8.3.1-14.4-.4-18.5a7.6,7.6,0,0,0-4.8-6.5,6.1,6.1,0,0,0-6.5,1.8c-2.5,2.6-3.4,6-5.2,12.7q-.9,3.5-3,4.5c-1.5.9-3.7,1-6.3.2s-5.3-2.5-8.5-4.7a95.7,95.7,0,0,0-9.7-5.7c-3.9-1.9-7.5-2-10.2-.3s-4.4,5.2-4.4,9.5V60.9h9.8V56.8H91.4V32.4c0-2.8.8-5,2.4-6s4.4-.4,6.2.5a72.2,72.2,0,0,1,9.2,5.5c3.6,2.3,6.6,4.3,9.6,5.2s7,.9,9.5-.6,4-3.7,4.9-7c1.7-6.3,2.5-9.1,4.3-11a1.9,1.9,0,0,1,2.2-.7,3.6,3.6,0,0,1,2,3.1c.5,3.9.4,9.8.4,18-.1,1.9,0,3.8,0,5.9h-4.3v4.1H142v26a7.7,7.7,0,0,0,4.4,7.3,6.9,6.9,0,0,0,7.5-1.9l3.1-3.2a42.7,42.7,0,0,1,5.9-5.6c2-1.4,5.2-2.7,9.5,1.6,1.8,1.8,4,4.4,6.1,6.9s4.3,4.9,6.2,6.9c4,4.2,8.4,6.4,12.7,6.4a13.7,13.7,0,0,0,8.7-3.3c5.3-4.2,7.6-10.7,7.6-20.9Z" transform="translate(-71.5 -14.1)"/>
    <path d="M226,56.8a3.7,3.7,0,1,1,0-7.3,3.4,3.4,0,0,1,2.6,1l2.9-2.9A7.8,7.8,0,1,0,226,60.9a7.5,7.5,0,0,0,5.5-2.3l-2.9-2.8a3.8,3.8,0,0,1-2.6,1" transform="translate(-71.5 -14.1)"/>
    <path d="M241.9,55.4l1.6-3.4,1.6,3.4Zm2.5-10.1h-1.8l-7.3,15.6h4.1l.9-2h6.4l1,2h4.1Z" transform="translate(-71.5 -14.1)"/>
  </g>
  <g>
    <line class="cls-1" x1="207.7" y1="34.6" x2="221.8" y2="48.7"/>
    <rect class="cls-2" x="285.8" y="45.8" width="1" height="19.94" transform="translate(-27.1 204.7) rotate(-45)"/>
  </g>
  <g>
    <line class="cls-1" x1="221.8" y1="34.6" x2="207.7" y2="48.7"/>
    <rect class="cls-2" x="276.3" y="55.3" width="19.9" height="1" transform="translate(-27.1 204.7) rotate(-45)"/>
  </g>
</svg>
